<svg width="182" height="27" viewBox="0 0 182 27" fill="none" xmlns="http://www.w3.org/2000/svg">
<path d="M1.46 20V5.9H4.04L8.8 14.56L13.54 5.9H16.08V20H13.26V11.4L9.62 17.88H7.88L4.26 11.46V20H1.46ZM23.7795 20.22C22.6195 20.22 21.6195 20.0133 20.7795 19.6C19.9529 19.1733 19.3129 18.58 18.8595 17.82C18.4195 17.0467 18.1995 16.14 18.1995 15.1C18.1995 14.0867 18.4129 13.2 18.8395 12.44C19.2795 11.6667 19.8729 11.0667 20.6195 10.64C21.3795 10.2 22.2529 9.98 23.2395 9.98C24.6662 9.98 25.7995 10.4333 26.6395 11.34C27.4795 12.2333 27.8995 13.4467 27.8995 14.98V15.74H21.0795C21.1862 16.5133 21.4662 17.08 21.9195 17.44C22.3862 17.7867 23.0262 17.96 23.8395 17.96C24.3729 17.96 24.9129 17.88 25.4595 17.72C26.0062 17.56 26.4995 17.3133 26.9395 16.98L27.7395 19C27.2462 19.3733 26.6395 19.6733 25.9195 19.9C25.2129 20.1133 24.4995 20.22 23.7795 20.22ZM23.3595 11.98C22.7195 11.98 22.1995 12.1733 21.7995 12.56C21.4129 12.9467 21.1729 13.4867 21.0795 14.18H25.3995C25.3195 12.7133 24.6395 11.98 23.3595 11.98ZM34.4175 20.22C31.6575 20.22 30.2775 18.88 30.2775 16.2V12.44H28.4175V10.18H30.2775V7.3H33.2975V10.18H36.1975V12.44H33.2975V16.08C33.2975 16.64 33.4242 17.06 33.6775 17.34C33.9442 17.62 34.3642 17.76 34.9375 17.76C35.1108 17.76 35.2908 17.74 35.4775 17.7C35.6775 17.66 35.8908 17.6067 36.1175 17.54L36.5575 19.74C36.2775 19.8867 35.9442 20 35.5575 20.08C35.1708 20.1733 34.7908 20.22 34.4175 20.22Z" fill="#4880FF"/>
<path d="M42.9834 20.22C41.8768 20.22 40.8301 20.08 39.8434 19.8C38.8701 19.52 38.0568 19.14 37.4034 18.66L38.3034 16.22C38.9301 16.66 39.6434 17.0067 40.4434 17.26C41.2568 17.5133 42.1034 17.64 42.9834 17.64C43.9434 17.64 44.6301 17.4933 45.0434 17.2C45.4701 16.8933 45.6834 16.5133 45.6834 16.06C45.6834 15.6733 45.5368 15.3667 45.2434 15.14C44.9501 14.9133 44.4368 14.72 43.7034 14.56L41.4434 14.08C38.9234 13.5467 37.6634 12.24 37.6634 10.16C37.6634 9.26667 37.9034 8.48667 38.3834 7.82C38.8634 7.14 39.5301 6.61333 40.3834 6.24C41.2501 5.86667 42.2501 5.68 43.3834 5.68C44.3568 5.68 45.2701 5.82 46.1234 6.1C46.9768 6.38 47.6834 6.77333 48.2434 7.28L47.3434 9.56C46.2501 8.69333 44.9234 8.26 43.3634 8.26C42.5234 8.26 41.8701 8.42667 41.4034 8.76C40.9501 9.08 40.7234 9.5 40.7234 10.02C40.7234 10.4067 40.8634 10.72 41.1434 10.96C41.4234 11.2 41.9101 11.3933 42.6034 11.54L44.8634 12.02C47.4501 12.58 48.7434 13.8467 48.7434 15.82C48.7434 16.7 48.5034 17.4733 48.0234 18.14C47.5568 18.7933 46.8901 19.3067 46.0234 19.68C45.1701 20.04 44.1568 20.22 42.9834 20.22ZM55.1792 20.22C52.4192 20.22 51.0392 18.88 51.0392 16.2V12.44H49.1792V10.18H51.0392V7.3H54.0592V10.18H56.9592V12.44H54.0592V16.08C54.0592 16.64 54.1859 17.06 54.4392 17.34C54.7059 17.62 55.1259 17.76 55.6992 17.76C55.8726 17.76 56.0526 17.74 56.2392 17.7C56.4392 17.66 56.6526 17.6067 56.8792 17.54L57.3192 19.74C57.0392 19.8867 56.7059 20 56.3192 20.08C55.9326 20.1733 55.5526 20.22 55.1792 20.22ZM61.7652 20.22C61.0318 20.22 60.3852 20.08 59.8252 19.8C59.2652 19.52 58.8185 19.14 58.4852 18.66C58.1652 18.18 58.0052 17.64 58.0052 17.04C58.0052 16.3333 58.1918 15.7667 58.5652 15.34C58.9385 14.9133 59.5452 14.6133 60.3852 14.44C61.2252 14.2533 62.3385 14.16 63.7252 14.16H64.4452V13.82C64.4452 13.2333 64.3118 12.82 64.0452 12.58C63.7785 12.3267 63.3252 12.2 62.6852 12.2C62.1518 12.2 61.5852 12.2867 60.9852 12.46C60.3985 12.62 59.8118 12.8667 59.2252 13.2L58.4052 11.18C58.7518 10.9533 59.1718 10.7467 59.6652 10.56C60.1718 10.3733 60.6985 10.2333 61.2452 10.14C61.7918 10.0333 62.3118 9.98 62.8052 9.98C64.3252 9.98 65.4585 10.3267 66.2052 11.02C66.9518 11.7 67.3252 12.76 67.3252 14.2V20H64.5052V18.52C64.3052 19.04 63.9652 19.4533 63.4852 19.76C63.0185 20.0667 62.4452 20.22 61.7652 20.22ZM62.4452 18.2C63.0052 18.2 63.4785 18.0067 63.8652 17.62C64.2518 17.2333 64.4452 16.7333 64.4452 16.12V15.72H63.7452C62.7185 15.72 61.9918 15.8133 61.5652 16C61.1385 16.1733 60.9252 16.48 60.9252 16.92C60.9252 17.2933 61.0518 17.6 61.3052 17.84C61.5718 18.08 61.9518 18.2 62.4452 18.2ZM74.358 20.22C73.2913 20.22 72.358 20.0133 71.558 19.6C70.7713 19.1733 70.1646 18.5733 69.738 17.8C69.3113 17.0267 69.098 16.1133 69.098 15.06C69.098 14.0067 69.3113 13.1 69.738 12.34C70.1646 11.58 70.7713 11 71.558 10.6C72.358 10.1867 73.2913 9.98 74.358 9.98C74.9846 9.98 75.618 10.0733 76.258 10.26C76.898 10.4467 77.418 10.7133 77.818 11.06L76.978 13.14C76.6446 12.8733 76.2713 12.6667 75.858 12.52C75.4446 12.36 75.0446 12.28 74.658 12.28C73.8713 12.28 73.258 12.5267 72.818 13.02C72.3913 13.5 72.178 14.1867 72.178 15.08C72.178 15.96 72.3913 16.6533 72.818 17.16C73.258 17.6533 73.8713 17.9 74.658 17.9C75.0313 17.9 75.4246 17.8267 75.838 17.68C76.2646 17.5333 76.6446 17.32 76.978 17.04L77.818 19.12C77.418 19.4667 76.898 19.74 76.258 19.94C75.618 20.1267 74.9846 20.22 74.358 20.22ZM79.1288 20V5.9H82.1488V14.24H82.1888L85.8088 10.18H89.3888L85.2288 14.88L89.5888 20H85.9488L82.1888 15.76H82.1488V20H79.1288Z" fill="#202224"/>
</svg>
